# xmcd CD database file
#
# Track frame offsets:
#	150
#	14348
#	27315
#	40172
#	50990
#	64935
#	77963
#	92803
#	105770
#	121682
#	134352
#	144917
#	155892
#	168764
#	180999
#	193639
#	206306
#	219634
#	234438
#	246934
#	261918
#	274615
#	287151
#	297272
#	309803
#	320689
#	333655
#
# Disc length: 4630 seconds
#
# Revision: 0
# Processed by: cddbd v1.5.2PL0 Copyright (c) Steve Scherf et al.
# Submitted via: CDex 1.51
#
DISCID=8912141b
DTITLE=Elmore James - The Broomdusters Box CD1
DYEAR=1900
DGENRE=Blues
TTITLE0=Please Find My Baby (Lost Woman Blues)
TTITLE1=Hand in Hand
TTITLE2=Rock My Baby Tonight
TTITLE3=My Baby's Gone (Won't Be Back No More)
TTITLE4=One More Drink
TTITLE5=Baby What's Wrong
TTITLE6=I Believe (My Time Ain't Long)
TTITLE7=Sinful Woman
TTITLE8=I Held My Baby Last Night
TTITLE9=Early in the Morning
TTITLE10=Hawaiian Boogie
TTITLE11=Can't Stop Lovin'
TTITLE12=Make A Little Love
TTITLE13=Make My Dreams Come True (My Best Friend)
TTITLE14=Strange Kinda Feeling
TTITLE15=Dark and Dreary
TTITLE16=Where Can My Baby Be
TTITLE17=1839 Blues
TTITLE18=Sho' Nuff I Do (Please Come Back to Me)
TTITLE19=Sunny Land
TTITLE20=Standing at the Crossroads
TTITLE21=Late Hours at Midnight
TTITLE22=The Way You Treat Me (Mean and Evil)
TTITLE23=Happy Home
TTITLE24=No Love in my Heart
TTITLE25=I Was a Fool
TTITLE26=Good Bye Baby
EXTD=
EXTT0=
EXTT1=
EXTT2=
EXTT3=
EXTT4=
EXTT5=
EXTT6=
EXTT7=
EXTT8=
EXTT9=
EXTT10=
EXTT11=
EXTT12=
EXTT13=
EXTT14=
EXTT15=
EXTT16=
EXTT17=
EXTT18=
EXTT19=
EXTT20=
EXTT21=
EXTT22=
EXTT23=
EXTT24=
EXTT25=
EXTT26=
PLAYORDER=
